<svg id="aws" xmlns="http://www.w3.org/2000/svg" width="180.212" height="69.904" viewBox="0 0 180.212 69.904">
  <path id="Path_44" data-name="Path 44" d="M23.687,67.185,13.1,63.388V47.879l10.586,3.605v15.7m1.942,0,10.586-3.8V47.879L25.629,51.484v15.7M14.189,46.719,24.9,43.7l9.935,3.2L24.9,50.278,14.189,46.719m-3.105-1.2L.5,41.722V26.212l10.586,3.605v15.7m1.942,0,10.587-3.8V26.212L13.026,29.817v15.7M1.586,25.051,12.3,22.037l9.935,3.2L12.3,28.611,1.586,25.052m34.2,20.466L25.2,41.722V26.212l10.587,3.605v15.7m1.942,0,10.587-3.8V26.212L37.728,29.817v15.7M26.288,25.051,37,22.037l9.934,3.2L37,28.611,26.288,25.052m22.1-1.2L37.8,20.055V4.545l10.587,3.6v15.7m1.942,0,10.586-3.794V4.545L50.33,8.149v15.7M38.891,3.385,49.606.37l9.934,3.2L49.606,6.944,38.891,3.385m34.2,20.465L62.505,20.055V4.545l10.587,3.6v15.7m1.941,0L85.62,20.055V4.545l-10.587,3.6v15.7M63.593,3.385,74.307.37l9.934,3.2L74.307,6.943,63.593,3.384" transform="translate(-0.498 -0.37)" fill="#f90" fill-rule="evenodd"/>
  <path id="Path_45" data-name="Path 45" d="M89.123,80.69,85.567,93.044H84.022l-2.769-9.176-2.538,9.176H77.14l-3.7-12.354h1.911L78.045,89.9l2.563-9.206h1.41L84.8,89.926l2.767-9.236h1.552Z" transform="translate(-21.94 -23.983)" fill-rule="evenodd"/>
  <path id="Path_46" data-name="Path 46" d="M89.123,80.69,85.567,93.044H84.022l-2.769-9.176-2.538,9.176H77.14l-3.7-12.354h1.911L78.045,89.9l2.563-9.206h1.41L84.8,89.926l2.767-9.236h1.552Z" transform="translate(-21.94 -23.983)" stroke="#000" stroke-width="1" fill-rule="evenodd"/>
  <path id="Path_47" data-name="Path 47" d="M105.784,89.216l1.79.367a5.038,5.038,0,0,1-1.9,2.623,5.488,5.488,0,0,1-3.334,1.038,5.179,5.179,0,0,1-4.09-1.782,6.821,6.821,0,0,1-1.563-4.671,6.892,6.892,0,0,1,1.624-4.769,5.237,5.237,0,0,1,4.079-1.818,4.925,4.925,0,0,1,3.889,1.674,7.535,7.535,0,0,1,1.508,5.01H98.817q0,2.8,1.171,3.781a3.81,3.81,0,0,0,2.477.978A3.385,3.385,0,0,0,105.784,89.216Zm-.1-3.759a5.362,5.362,0,0,0-.342-1.847,3.155,3.155,0,0,0-1.074-1.375,2.944,2.944,0,0,0-1.819-.568,3.243,3.243,0,0,0-2.422,1.027,4.251,4.251,0,0,0-1.116,2.762h6.773Z" transform="translate(-28.77 -23.841)" fill-rule="evenodd"/>
  <path id="Path_48" data-name="Path 48" d="M105.784,89.216l1.79.367a5.038,5.038,0,0,1-1.9,2.623,5.488,5.488,0,0,1-3.334,1.038,5.179,5.179,0,0,1-4.09-1.782,6.821,6.821,0,0,1-1.563-4.671,6.892,6.892,0,0,1,1.624-4.769,5.237,5.237,0,0,1,4.079-1.818,4.925,4.925,0,0,1,3.889,1.674,7.535,7.535,0,0,1,1.508,5.01H98.817q0,2.8,1.171,3.781a3.81,3.81,0,0,0,2.477.978A3.385,3.385,0,0,0,105.784,89.216Zm-.1-3.759a5.362,5.362,0,0,0-.342-1.847,3.155,3.155,0,0,0-1.074-1.375,2.944,2.944,0,0,0-1.819-.568,3.243,3.243,0,0,0-2.422,1.027,4.251,4.251,0,0,0-1.116,2.762h6.773Z" transform="translate(-28.77 -23.841)" stroke="#000" stroke-width="1" fill-rule="evenodd"/>
  <path id="Path_49" data-name="Path 49" d="M116.9,91.246h-.925V74.566H117.9v6.386a4.024,4.024,0,0,1,3.635-2.4,4.492,4.492,0,0,1,3.555,1.678,7.3,7.3,0,0,1,1.434,4.873,7.453,7.453,0,0,1-1.41,4.622,4.392,4.392,0,0,1-3.67,1.868,4.216,4.216,0,0,1-3.858-2.388Zm1-4.844a3.767,3.767,0,0,0,1.167,2.762,3.365,3.365,0,0,0,2.181.859,2.765,2.765,0,0,0,2.364-1.274,5.956,5.956,0,0,0,.9-3.488,6.955,6.955,0,0,0-.867-3.751,2.711,2.711,0,0,0-2.407-1.365,3.02,3.02,0,0,0-2.181.971,4.125,4.125,0,0,0-1.155,2.512V86.4Z" transform="translate(-34.441 -22.185)" fill-rule="evenodd"/>
  <path id="Path_50" data-name="Path 50" d="M116.9,91.246h-.925V74.566H117.9v6.386a4.024,4.024,0,0,1,3.635-2.4,4.492,4.492,0,0,1,3.555,1.678,7.3,7.3,0,0,1,1.434,4.873,7.453,7.453,0,0,1-1.41,4.622,4.392,4.392,0,0,1-3.67,1.868,4.216,4.216,0,0,1-3.858-2.388Zm1-4.844a3.767,3.767,0,0,0,1.167,2.762,3.365,3.365,0,0,0,2.181.859,2.765,2.765,0,0,0,2.364-1.274,5.956,5.956,0,0,0,.9-3.488,6.955,6.955,0,0,0-.867-3.751,2.711,2.711,0,0,0-2.407-1.365,3.02,3.02,0,0,0-2.181.971,4.125,4.125,0,0,0-1.155,2.512V86.4Z" transform="translate(-34.441 -22.185)" stroke="#000" stroke-width="1" fill-rule="evenodd"/>
  <path id="Path_51" data-name="Path 51" d="M137.853,89.7l1.835-.379q.612,2.328,3.867,2.328a3.664,3.664,0,0,0,2.03-.537,1.7,1.7,0,0,0,.832-1.512q0-1.452-2.118-1.842l-2.6-.5a4.75,4.75,0,0,1-2.433-1.15,2.973,2.973,0,0,1-.9-2.263,3.272,3.272,0,0,1,1.234-2.6,4.971,4.971,0,0,1,3.324-1.045q4.02,0,4.961,3.142l-1.76.379A3.009,3.009,0,0,0,143,81.8a3.516,3.516,0,0,0-1.924.481,1.514,1.514,0,0,0-.751,1.345q0,1.362,1.919,1.715l2.405.443q3.777.684,3.776,3.663a3.268,3.268,0,0,1-1.406,2.749,6.111,6.111,0,0,1-3.742,1.048q-4.39,0-5.429-3.545Z" transform="translate(-40.872 -23.841)" fill-rule="evenodd"/>
  <path id="Path_52" data-name="Path 52" d="M137.853,89.7l1.835-.379q.612,2.328,3.867,2.328a3.664,3.664,0,0,0,2.03-.537,1.7,1.7,0,0,0,.832-1.512q0-1.452-2.118-1.842l-2.6-.5a4.75,4.75,0,0,1-2.433-1.15,2.973,2.973,0,0,1-.9-2.263,3.272,3.272,0,0,1,1.234-2.6,4.971,4.971,0,0,1,3.324-1.045q4.02,0,4.961,3.142l-1.76.379A3.009,3.009,0,0,0,143,81.8a3.516,3.516,0,0,0-1.924.481,1.514,1.514,0,0,0-.751,1.345q0,1.362,1.919,1.715l2.405.443q3.777.684,3.776,3.663a3.268,3.268,0,0,1-1.406,2.749,6.111,6.111,0,0,1-3.742,1.048q-4.39,0-5.429-3.545Z" transform="translate(-40.872 -23.841)" stroke="#000" stroke-width="1" fill-rule="evenodd"/>
  <path id="Path_53" data-name="Path 53" d="M163.534,89.216l1.79.367a5.028,5.028,0,0,1-1.9,2.623,5.483,5.483,0,0,1-3.333,1.038A5.179,5.179,0,0,1,156,91.463a7.788,7.788,0,0,1,.062-9.44,5.235,5.235,0,0,1,4.078-1.818,4.927,4.927,0,0,1,3.889,1.674,7.527,7.527,0,0,1,1.507,5.01h-8.966q0,2.8,1.171,3.781a3.813,3.813,0,0,0,2.477.978A3.385,3.385,0,0,0,163.534,89.216Zm-.1-3.759a5.363,5.363,0,0,0-.341-1.847,3.155,3.155,0,0,0-1.074-1.375,2.946,2.946,0,0,0-1.819-.568,3.246,3.246,0,0,0-2.423,1.027,4.251,4.251,0,0,0-1.116,2.762h6.773Z" transform="translate(-45.746 -23.841)" fill-rule="evenodd"/>
  <path id="Path_54" data-name="Path 54" d="M163.534,89.216l1.79.367a5.028,5.028,0,0,1-1.9,2.623,5.483,5.483,0,0,1-3.333,1.038A5.179,5.179,0,0,1,156,91.463a7.788,7.788,0,0,1,.062-9.44,5.235,5.235,0,0,1,4.078-1.818,4.927,4.927,0,0,1,3.889,1.674,7.527,7.527,0,0,1,1.507,5.01h-8.966q0,2.8,1.171,3.781a3.813,3.813,0,0,0,2.477.978A3.385,3.385,0,0,0,163.534,89.216Zm-.1-3.759a5.363,5.363,0,0,0-.341-1.847,3.155,3.155,0,0,0-1.074-1.375,2.946,2.946,0,0,0-1.819-.568,3.246,3.246,0,0,0-2.423,1.027,4.251,4.251,0,0,0-1.116,2.762h6.773Z" transform="translate(-45.746 -23.841)" stroke="#000" stroke-width="1" fill-rule="evenodd"/>
  <path id="Path_55" data-name="Path 55" d="M175,92.9h-1.925V80.548h1.687v2.88a6.127,6.127,0,0,1,1.789-2.622,3.269,3.269,0,0,1,1.839-.6c.195,0,.448.015.757.045v1.835h-.39a3.377,3.377,0,0,0-2.635,1.179,4.771,4.771,0,0,0-1.123,3.1V92.9Z" transform="translate(-51.224 -23.841)" fill-rule="evenodd"/>
  <path id="Path_56" data-name="Path 56" d="M175,92.9h-1.925V80.548h1.687v2.88a6.127,6.127,0,0,1,1.789-2.622,3.269,3.269,0,0,1,1.839-.6c.195,0,.448.015.757.045v1.835h-.39a3.377,3.377,0,0,0-2.635,1.179,4.771,4.771,0,0,0-1.123,3.1V92.9Z" transform="translate(-51.224 -23.841)" stroke="#000" stroke-width="1" fill-rule="evenodd"/>
  <path id="Path_57" data-name="Path 57" d="M194.162,80.69,189.9,93.044H187.9L183.495,80.69h2.129l3.429,10.041,3.4-10.041h1.707Z" transform="translate(-54.288 -23.983)" fill-rule="evenodd"/>
  <path id="Path_58" data-name="Path 58" d="M194.162,80.69,189.9,93.044H187.9L183.495,80.69h2.129l3.429,10.041,3.4-10.041h1.707Z" transform="translate(-54.288 -23.983)" stroke="#000" stroke-width="1" fill-rule="evenodd"/>
  <path id="Path_59" data-name="Path 59" d="M200.774,74.566h2.059V76.7h-2.059Zm.09,4.326h1.924V91.246h-1.924Z" transform="translate(-59.364 -22.185)" fill-rule="evenodd"/>
  <path id="Path_60" data-name="Path 60" d="M200.774,74.566h2.059V76.7h-2.059Zm.09,4.326h1.924V91.246h-1.924Z" transform="translate(-59.364 -22.185)" stroke="#000" stroke-width="1" fill-rule="evenodd"/>
  <path id="Path_61" data-name="Path 61" d="M214.424,88.575l1.73.305a5.527,5.527,0,0,1-1.625,3.206,4.906,4.906,0,0,1-7.033-.728,7.752,7.752,0,0,1-1.339-4.6,7.547,7.547,0,0,1,1.412-4.683,4.559,4.559,0,0,1,3.843-1.867,4.383,4.383,0,0,1,3.232,1.207,5.4,5.4,0,0,1,1.51,3.117l-1.731.33q-.488-3.057-2.955-3.059a2.725,2.725,0,0,0-2.441,1.35,6.454,6.454,0,0,0-.855,3.5,6.773,6.773,0,0,0,.848,3.684,2.69,2.69,0,0,0,2.388,1.313q2.38,0,3.016-3.073Z" transform="translate(-60.96 -23.841)" fill-rule="evenodd"/>
  <path id="Path_62" data-name="Path 62" d="M214.424,88.575l1.73.305a5.527,5.527,0,0,1-1.625,3.206,4.906,4.906,0,0,1-7.033-.728,7.752,7.752,0,0,1-1.339-4.6,7.547,7.547,0,0,1,1.412-4.683,4.559,4.559,0,0,1,3.843-1.867,4.383,4.383,0,0,1,3.232,1.207,5.4,5.4,0,0,1,1.51,3.117l-1.731.33q-.488-3.057-2.955-3.059a2.725,2.725,0,0,0-2.441,1.35,6.454,6.454,0,0,0-.855,3.5,6.773,6.773,0,0,0,.848,3.684,2.69,2.69,0,0,0,2.388,1.313q2.38,0,3.016-3.073Z" transform="translate(-60.96 -23.841)" stroke="#000" stroke-width="1" fill-rule="evenodd"/>
  <path id="Path_63" data-name="Path 63" d="M231.891,89.216l1.79.367a5.032,5.032,0,0,1-1.9,2.623,5.484,5.484,0,0,1-3.333,1.038,5.18,5.18,0,0,1-4.091-1.782,7.788,7.788,0,0,1,.062-9.44,5.237,5.237,0,0,1,4.079-1.818,4.925,4.925,0,0,1,3.889,1.674,7.527,7.527,0,0,1,1.508,5.01h-8.967q0,2.8,1.171,3.781a3.813,3.813,0,0,0,2.478.978A3.386,3.386,0,0,0,231.891,89.216Zm-.1-3.759a5.379,5.379,0,0,0-.342-1.847,3.155,3.155,0,0,0-1.074-1.375,2.944,2.944,0,0,0-1.819-.568,3.244,3.244,0,0,0-2.423,1.027,4.251,4.251,0,0,0-1.116,2.762h6.774Z" transform="translate(-65.844 -23.841)" fill-rule="evenodd"/>
  <path id="Path_64" data-name="Path 64" d="M231.891,89.216l1.79.367a5.032,5.032,0,0,1-1.9,2.623,5.484,5.484,0,0,1-3.333,1.038,5.18,5.18,0,0,1-4.091-1.782,7.788,7.788,0,0,1,.062-9.44,5.237,5.237,0,0,1,4.079-1.818,4.925,4.925,0,0,1,3.889,1.674,7.527,7.527,0,0,1,1.508,5.01h-8.967q0,2.8,1.171,3.781a3.813,3.813,0,0,0,2.478.978A3.386,3.386,0,0,0,231.891,89.216Zm-.1-3.759a5.379,5.379,0,0,0-.342-1.847,3.155,3.155,0,0,0-1.074-1.375,2.944,2.944,0,0,0-1.819-.568,3.244,3.244,0,0,0-2.423,1.027,4.251,4.251,0,0,0-1.116,2.762h6.774Z" transform="translate(-65.844 -23.841)" stroke="#000" stroke-width="1" fill-rule="evenodd"/>
  <path id="Path_65" data-name="Path 65" d="M240.042,89.7l1.837-.379q.61,2.328,3.865,2.328a3.665,3.665,0,0,0,2.031-.537,1.7,1.7,0,0,0,.832-1.512q0-1.452-2.118-1.842l-2.6-.5a4.75,4.75,0,0,1-2.433-1.15,2.973,2.973,0,0,1-.9-2.263,3.27,3.27,0,0,1,1.234-2.6,4.97,4.97,0,0,1,3.324-1.045q4.02,0,4.961,3.142l-1.76.379a3.009,3.009,0,0,0-3.114-1.925,3.512,3.512,0,0,0-1.924.481,1.512,1.512,0,0,0-.752,1.345q0,1.362,1.92,1.715l2.4.443q3.776.684,3.777,3.663a3.267,3.267,0,0,1-1.406,2.749,6.113,6.113,0,0,1-3.742,1.048q-4.39,0-5.43-3.545Z" transform="translate(-70.909 -23.841)" fill-rule="evenodd"/>
  <path id="Path_66" data-name="Path 66" d="M240.042,89.7l1.837-.379q.61,2.328,3.865,2.328a3.665,3.665,0,0,0,2.031-.537,1.7,1.7,0,0,0,.832-1.512q0-1.452-2.118-1.842l-2.6-.5a4.75,4.75,0,0,1-2.433-1.15,2.973,2.973,0,0,1-.9-2.263,3.27,3.27,0,0,1,1.234-2.6,4.97,4.97,0,0,1,3.324-1.045q4.02,0,4.961,3.142l-1.76.379a3.009,3.009,0,0,0-3.114-1.925,3.512,3.512,0,0,0-1.924.481,1.512,1.512,0,0,0-.752,1.345q0,1.362,1.92,1.715l2.4.443q3.776.684,3.777,3.663a3.267,3.267,0,0,1-1.406,2.749,6.113,6.113,0,0,1-3.742,1.048q-4.39,0-5.43-3.545Z" transform="translate(-70.909 -23.841)" stroke="#000" stroke-width="1" fill-rule="evenodd"/>
  <path id="Path_67" data-name="Path 67" d="M147.6,41.524V38.557a.733.733,0,0,1,.752-.752h13.3a.742.742,0,0,1,.768.749V41.1a4.16,4.16,0,0,1-1,1.868L154.531,52.8a14.75,14.75,0,0,1,7.586,1.629,1.355,1.355,0,0,1,.7,1.158v3.166c0,.437-.477.941-.979.678a15.317,15.317,0,0,0-14.052.026c-.463.247-.947-.251-.947-.687v-3.01a3.579,3.579,0,0,1,.494-2.04l7.982-11.451h-6.95a.74.74,0,0,1-.768-.747m-47.6,18.534H95.958a.761.761,0,0,1-.723-.683l0-20.768a.763.763,0,0,1,.781-.747h3.768a.761.761,0,0,1,.736.7v2.712h.076a5.338,5.338,0,0,1,5.325-3.846c2.531,0,4.117,1.224,5.251,3.846a5.975,5.975,0,0,1,10.273-1.574c1.284,1.748,1.02,4.283,1.02,6.512l0,13.1a.764.764,0,0,1-.781.748h-4.041a.76.76,0,0,1-.727-.746V48.3a26.514,26.514,0,0,0-.114-3.889,2.109,2.109,0,0,0-2.379-1.792,2.683,2.683,0,0,0-2.417,1.7,12.546,12.546,0,0,0-.378,3.977V59.311a.763.763,0,0,1-.78.748H106.8a.76.76,0,0,1-.726-.746l0-11.01c0-2.316.378-5.725-2.492-5.725-2.909,0-2.8,3.321-2.8,5.725l0,11.008a.763.763,0,0,1-.78.748m72.187-22.637c5.958,0,9.18,5.157,9.18,11.712,0,6.336-3.56,11.362-9.18,11.362-5.845,0-9.031-5.157-9.031-11.581,0-6.468,3.223-11.493,9.031-11.493Zm.037,4.774c-2.96,0-3.148,4.064-3.148,6.6s-.037,7.419,3.11,7.419c3.11,0,3.26-3.836,3.26-6.5a19.346,19.346,0,0,0-.6-5.506A2.517,2.517,0,0,0,172.229,42.2Zm17.765,17.863h-4.031a.759.759,0,0,1-.726-.745l-.007-20.775a.767.767,0,0,1,.778-.678h3.753a.769.769,0,0,1,.719.581v3.177h.076c1.133-2.84,2.719-4.2,5.514-4.2a5.3,5.3,0,0,1,4.722,2.448c1.057,1.66,1.057,4.457,1.057,6.468V59.4a.767.767,0,0,1-.775.655h-4.057a.764.764,0,0,1-.721-.655V48.128c0-2.272.265-5.594-2.53-5.594a2.646,2.646,0,0,0-2.342,1.661,9.232,9.232,0,0,0-.643,3.933V59.311a.774.774,0,0,1-.788.748m-52.537-9.918a7.944,7.944,0,0,1-.756,4.292,3.287,3.287,0,0,1-2.8,1.839c-1.551,0-2.46-1.182-2.46-2.934,0-3.446,3.091-4.073,6.018-4.073v.876Zm4.08,9.865a.839.839,0,0,1-.956.095,9.892,9.892,0,0,1-2.319-2.7c-2.222,2.263-3.794,2.941-6.671,2.941-3.406,0-6.056-2.1-6.056-6.307a6.873,6.873,0,0,1,4.315-6.613c2.2-.964,5.262-1.139,7.608-1.4V45.5a5.18,5.18,0,0,0-.492-2.934,2.7,2.7,0,0,0-2.271-1.051,3.081,3.081,0,0,0-3.252,2.43.853.853,0,0,1-.7.743l-3.922-.424a.712.712,0,0,1-.6-.846c.9-4.758,5.2-6.2,9.049-6.2a9.18,9.18,0,0,1,6.094,2.015c1.968,1.839,1.779,4.292,1.779,6.964v6.3a5.529,5.529,0,0,0,1.528,3.75.761.761,0,0,1-.014,1.074c-.826.692-2.294,1.969-3.1,2.688l-.009-.009ZM84.874,50.141a7.938,7.938,0,0,1-.757,4.292,3.285,3.285,0,0,1-2.8,1.839c-1.552,0-2.46-1.182-2.46-2.934,0-3.446,3.091-4.073,6.018-4.073v.876Zm4.08,9.865A.839.839,0,0,1,88,60.1a9.883,9.883,0,0,1-2.32-2.7c-2.221,2.263-3.794,2.941-6.67,2.941-3.407,0-6.057-2.1-6.057-6.307a6.872,6.872,0,0,1,4.315-6.613c2.2-.964,5.262-1.139,7.608-1.4V45.5a5.186,5.186,0,0,0-.492-2.934,2.7,2.7,0,0,0-2.271-1.051,3.082,3.082,0,0,0-3.253,2.43.853.853,0,0,1-.7.743l-3.921-.424a.712.712,0,0,1-.6-.846c.9-4.758,5.2-6.2,9.049-6.2a9.18,9.18,0,0,1,6.094,2.015c1.968,1.839,1.779,4.292,1.779,6.964v6.3a5.529,5.529,0,0,0,1.527,3.75.762.762,0,0,1-.013,1.074c-.826.692-2.3,1.969-3.1,2.688l-.009-.009Z" transform="translate(-21.85 -11.207)" fill-rule="evenodd"/>
</svg>
