<svg id="fabric" xmlns="http://www.w3.org/2000/svg" width="216" height="54.956" viewBox="0 0 216 54.956">
  <path id="Path_74" data-name="Path 74" d="M44.87,22.3a3.138,3.138,0,0,0-3.07,3.07,3.07,3.07,0,1,0,3.07-3.07Z" transform="translate(3.864 2.053)"/>
  <path id="Path_75" data-name="Path 75" d="M44.87,41.9a3.138,3.138,0,0,0-3.07,3.07,3.07,3.07,0,1,0,3.07-3.07Z" transform="translate(3.864 3.846)"/>
  <path id="Path_76" data-name="Path 76" d="M25.37,41.9a3.138,3.138,0,0,0-3.07,3.07,3.065,3.065,0,0,0,3.07,3.07,3.07,3.07,0,0,0,0-6.14Z" transform="translate(2.15 3.846)"/>
  <circle id="Ellipse_3" data-name="Ellipse 3" cx="6.14" cy="6.14" r="6.14" transform="translate(21.38 21.283)"/>
  <circle id="Ellipse_4" data-name="Ellipse 4" cx="6.14" cy="6.14" r="6.14" transform="translate(0 0)"/>
  <circle id="Ellipse_5" data-name="Ellipse 5" cx="6.14" cy="6.14" r="6.14" transform="translate(0 21.283)"/>
  <circle id="Ellipse_6" data-name="Ellipse 6" cx="6.14" cy="6.14" r="6.14" transform="translate(21.38 0)"/>
  <circle id="Ellipse_7" data-name="Ellipse 7" cx="6.14" cy="6.14" r="6.14" transform="translate(42.601 0)"/>
  <circle id="Ellipse_8" data-name="Ellipse 8" cx="6.14" cy="6.14" r="6.14" transform="translate(0 42.676)"/>
  <path id="Path_77" data-name="Path 77" d="M105.214,22.421A12.924,12.924,0,0,0,93.921,16.5C85.7,16.5,78.9,23.407,78.9,32.288s6.8,15.788,15.021,15.788a13.058,13.058,0,0,0,11.293-5.921v5.153h5.153V17.267h-5.153ZM94.579,43.033A10.443,10.443,0,0,1,84.053,32.288a10.582,10.582,0,1,1,21.161,0A10.467,10.467,0,0,1,94.579,43.033Z" transform="translate(7.252 1.397)"/>
  <path id="Path_78" data-name="Path 78" d="M129.046,17.642a13.074,13.074,0,0,0-11.293,5.894V6.4H112.6V48.312h5.153v-5.13a12.94,12.94,0,0,0,11.293,5.894c8.223,0,15.021-6.876,15.021-15.717A15.188,15.188,0,0,0,129.046,17.642Zm-.658,26.413a10.443,10.443,0,0,1-10.635-10.7,10.581,10.581,0,1,1,21.161,0A10.353,10.353,0,0,1,128.388,44.055Z" transform="translate(10.349 0.617)"/>
  <path id="Path_79" data-name="Path 79" d="M150.263,22.4V17.358H145V47.4h5.263V31.392c0-7.127,4.934-9.429,9.429-9.21V16.7C155.855,16.81,152.127,18.125,150.263,22.4Z" transform="translate(13.381 1.416)"/>
  <rect id="Rectangle_19" data-name="Rectangle 19" width="4.934" height="30.042" transform="translate(177.516 18.774)"/>
  <path id="Path_80" data-name="Path 80" d="M195.869,37.871a9.863,9.863,0,0,1-8.991,5.263,10.509,10.509,0,0,1-10.526-10.745,10.377,10.377,0,0,1,10.526-10.745,9.321,9.321,0,0,1,8.771,5.372l4.386-2.522A14.2,14.2,0,0,0,186.879,16.6,15.52,15.52,0,0,0,171.2,32.5c0,8.991,6.688,15.9,15.679,15.9A15.1,15.1,0,0,0,200.255,40.5Z" transform="translate(15.745 1.407)"/>
  <path id="Path_81" data-name="Path 81" d="M66.124,17.5v.873H61.3v5.021h4.824V48.28h5.263V23.395h8V18.374h-8V17.5c0-5.239,2.741-7.2,8-6.767V5.6C70.729,5.058,66.124,9.533,66.124,17.5Z" transform="translate(5.653 0.536)"/>
  <path id="Path_82" data-name="Path 82" d="M165.07,6.4A3.138,3.138,0,0,0,162,9.47a3.07,3.07,0,1,0,6.14,0A3.138,3.138,0,0,0,165.07,6.4Z" transform="translate(14.858 0.617)"/>
</svg>
