<svg xmlns="http://www.w3.org/2000/svg" width="41.188" height="40.172" viewBox="0 0 41.188 40.172">
  <path id="github-path" d="M20.594,0a20.6,20.6,0,0,0-6.509,40.136c1.028.19,1.361-.448,1.361-.99V35.312c-5.729,1.246-6.921-2.43-6.921-2.43a5.454,5.454,0,0,0-2.288-3.014c-1.869-1.279.142-1.251.142-1.251A4.323,4.323,0,0,1,9.535,30.74c1.836,3.147,4.817,2.238,5.993,1.711A4.369,4.369,0,0,1,16.835,29.7c-4.574-.523-9.382-2.289-9.382-10.179a7.971,7.971,0,0,1,2.121-5.528,7.407,7.407,0,0,1,.2-5.451s1.73-.553,5.665,2.111a19.52,19.52,0,0,1,10.312,0c3.932-2.663,5.658-2.111,5.658-2.111a7.4,7.4,0,0,1,.2,5.451,7.949,7.949,0,0,1,2.119,5.528c0,7.91-4.817,9.652-9.4,10.161a4.922,4.922,0,0,1,1.412,3.813v5.651c0,.547.33,1.191,1.375.989A20.6,20.6,0,0,0,20.594,0Z"/>
</svg>
