<svg id="kiitos" xmlns="http://www.w3.org/2000/svg" width="210" height="59.904" viewBox="0 0 210 59.904">
  <g id="Layer_1" data-name="Layer 1" transform="translate(0 0)">
    <path id="Path_68" data-name="Path 68" d="M25.507,58.681,11.682,38.045V58.681H0V0H11.682V34.711L24.651,15.547H38.107L23.493,36.088,39.663,58.7Z" transform="translate(0 0)" fill="#2e1921"/>
    <path id="Path_69" data-name="Path 69" d="M154.53,53.64h11.682V96.845H154.53Z" transform="translate(-109.744 -38.164)" fill="#2e1921"/>
    <path id="Path_70" data-name="Path 70" d="M233.35,53.64h11.679V96.845H233.35Z" transform="translate(-165.72 -38.164)" fill="#2e1921"/>
    <path id="Path_71" data-name="Path 71" d="M326.309,58.8V69.185h-8.3c-9.505,0-15.346-5.831-15.346-15.4V35.434H294.85V32.91L311.915,14.8h2.233V26.056h11.92v9.378H314.345V52.243c0,4.167,2.4,6.564,6.654,6.564Z" transform="translate(-209.412 -10.503)" fill="#2e1921"/>
    <path id="Path_72" data-name="Path 72" d="M419.52,72.255c0-13.108,9.972-22.825,23.356-22.825,13.317,0,23.356,9.731,23.356,22.825,0,13.027-10.039,22.825-23.356,22.825C429.492,95.08,419.52,85.281,419.52,72.255Zm34.87,0c0-7-4.779-11.842-11.514-11.842s-11.514,4.86-11.514,11.842S436.141,84.1,442.876,84.1,454.39,79.251,454.39,72.255Z" transform="translate(-297.978 -35.176)" fill="#2e1921"/>
    <path id="Path_73" data-name="Path 73" d="M617.758,95.07c-10.846,0-18.09-6.19-18.148-15.451H611c.058,3.85,3,5.769,7.194,5.769,3.243,0,6.146-1.469,6.146-4.355,0-2.955-3.748-3.85-8.315-4.613-6.9-1.147-15.677-3-15.677-13.178,0-8.175,6.968-13.822,17.384-13.822s17.274,5.806,17.32,14.44H623.959c-.044-3.434-2.462-5.13-6.526-5.13-3.638,0-5.783,1.666-5.783,4.14,0,2.88,3.687,3.551,8.175,4.355,7.049,1.266,16.046,2.758,16.046,13.282,0,8.817-7.209,14.557-18.119,14.557Z" transform="translate(-425.871 -35.169)" fill="#2e1921"/>
    <circle id="Ellipse_1" data-name="Ellipse 1" cx="5.841" cy="5.841" r="5.841" transform="translate(44.786)" fill="#2e1921"/>
    <circle id="Ellipse_2" data-name="Ellipse 2" cx="5.841" cy="5.841" r="5.841" transform="translate(67.627)" fill="#2e1921"/>
  </g>
</svg>
