<svg xmlns="http://www.w3.org/2000/svg" width="140" height="45.967" viewBox="0 0 140 45.967">
  <g id="sum" transform="translate(-0.062 -72.963)">
    <path id="Path_50" d="M461.27,73.119a17.868,17.868,0,0,0-11.895,5.433,18.131,18.131,0,0,0-31.075,12.7v22.561a5.176,5.176,0,0,0,5.2,5.15h.019a5.176,5.176,0,0,0,5.221-5.131V90.945a7.616,7.616,0,0,1,7.668-7.564h.229a7.715,7.715,0,0,1,7.439,7.734v22.674a5.188,5.188,0,0,0,5.2,5.15h0a5.176,5.176,0,0,0,5.221-5.131V90.945a7.628,7.628,0,0,1,7.668-7.564c.191,0,.382,0,.574.019a7.711,7.711,0,0,1,7.076,7.7v22.693a5.188,5.188,0,0,0,5.2,5.15h0a5.176,5.176,0,0,0,5.221-5.131v-.019h0V90.945A18.018,18.018,0,0,0,462.092,73.1C461.825,73.1,461.538,73.1,461.27,73.119Z" transform="translate(-340.178 -0.111)" fill="#4244d4"/>
    <path id="Path_51" d="M28.238,97.192c-2.352-2.83-5.718-4.244-8.4-5.4-.841-.358-3.385-1.453-3.882-1.7-1.625-.792-5.221-2.132-4.7-4.546a2.569,2.569,0,0,1,1.415-1.773c2.065-1.056,5.3.415,7.267,1.075a5.429,5.429,0,0,0,6.292-1.641,5.148,5.148,0,0,0-1.74-7.583A23.51,23.51,0,0,0,15.5,73.008a13.815,13.815,0,0,0-10.939,3.9A12.847,12.847,0,0,0,.815,87.1c.727,9,9.772,11.752,16.618,15.073,1.033.509,2.257.887,2.907,1.924,1.262,2.075-.861,4.131-2.83,4.414-3.347.49-6.521-1.339-9.409-2.754-2.295-1.113-4.953-1-6.674.887a5.184,5.184,0,0,0-1.32,2.849c-.44,3.49,2.39,5.282,5.106,6.64A24.728,24.728,0,0,0,16.229,118.9a19.446,19.446,0,0,0,5.106-.66,13.091,13.091,0,0,0,9.064-8.866A12.852,12.852,0,0,0,28.238,97.192Z" transform="translate(0)" fill="#4244d4"/>
    <path id="Path_52" d="M231.681,98.416a5.156,5.156,0,0,0-5.2-5.112h-.038a5.148,5.148,0,0,0-5.182,5.093v2.773a7.6,7.6,0,0,1-7.114,7.546,7.757,7.757,0,0,1-8.223-7.753V78.25a5.188,5.188,0,0,0-5.2-5.15h0a5.176,5.176,0,0,0-5.221,5.131v.019h0v22.618a18.092,18.092,0,0,0,36.181.321S231.7,99.6,231.681,98.416Z" transform="translate(-158.743 -0.111)" fill="#4244d4"/>
    <path id="Path_53" d="M332.333,73.2h3.729a3.632,3.632,0,0,1,3.633,3.633h0a3.632,3.632,0,0,1-3.633,3.633h-3.729a3.632,3.632,0,0,1-3.633-3.633h0a3.632,3.632,0,0,1,3.633-3.633Z" transform="translate(-266.714 -0.192)" fill="#4244d4"/>
    <path id="Path_54" d="M332.333,133.667h3.729a3.633,3.633,0,0,0,0-7.267h-3.729a3.633,3.633,0,0,0,0,7.267Z" transform="translate(-266.714 -43.382)" fill="#4244d4"/>
  </g>
</svg>
