<svg id="dribbble-logo" xmlns="http://www.w3.org/2000/svg" width="41.188" height="41.188" viewBox="0 0 41.188 41.188">
  <path id="dribbble-path" d="M28.594,8A20.594,20.594,0,1,0,49.188,28.594,20.617,20.617,0,0,0,28.594,8ZM42.21,17.5a17.507,17.507,0,0,1,3.972,10.957,41.107,41.107,0,0,0-12.249-.566c-.478-1.166-.928-2.192-1.546-3.456,6.5-2.655,9.451-6.434,9.822-6.936Zm-1.956-2.034c-.316.451-2.964,4.01-9.219,6.354a93.893,93.893,0,0,0-6.563-10.3A17.545,17.545,0,0,1,40.254,15.463ZM21.115,12.7a112.237,112.237,0,0,1,6.522,10.173,65.612,65.612,0,0,1-16.262,2.143A17.655,17.655,0,0,1,21.115,12.7ZM11,28.621c0-.18,0-.359.009-.538a64.887,64.887,0,0,0,18.078-2.5c.5.986.985,1.986,1.426,2.985A27.246,27.246,0,0,0,15.526,40.382,17.52,17.52,0,0,1,11,28.621ZM17.8,42.5c1.837-3.756,6.824-8.6,13.916-11.024a73.118,73.118,0,0,1,3.752,13.339A17.555,17.555,0,0,1,17.8,42.5Zm20.625.7A75.92,75.92,0,0,0,35,30.661a25.818,25.818,0,0,1,10.957.752A17.621,17.621,0,0,1,38.422,43.2Z" transform="translate(-8 -8)"/>
</svg>
