<svg xmlns="http://www.w3.org/2000/svg" xmlns:xlink="http://www.w3.org/1999/xlink" width="1428.664" height="1188.451" viewBox="0 0 1428.664 1188.451">
  <defs>
    <filter id="Rectangle_1" x="0" y="9.34" width="1250.45" height="1179.111" filterUnits="userSpaceOnUse">
      <feOffset dy="3" input="SourceAlpha"/>
      <feGaussianBlur stdDeviation="16" result="blur"/>
      <feFlood flood-color="#718061"/>
      <feComposite operator="in" in2="blur"/>
      <feComposite in="SourceGraphic"/>
    </filter>
    <filter id="Rectangle_2" x="10.483" y="8.79" width="1250.45" height="1179.111" filterUnits="userSpaceOnUse">
      <feOffset dy="3" input="SourceAlpha"/>
      <feGaussianBlur stdDeviation="16" result="blur-2"/>
      <feFlood flood-color="#718061"/>
      <feComposite operator="in" in2="blur-2"/>
      <feComposite in="SourceGraphic"/>
    </filter>
    <filter id="Rectangle_3" x="20.966" y="8.241" width="1250.45" height="1179.111" filterUnits="userSpaceOnUse">
      <feOffset dy="3" input="SourceAlpha"/>
      <feGaussianBlur stdDeviation="16" result="blur-3"/>
      <feFlood flood-color="#718061"/>
      <feComposite operator="in" in2="blur-3"/>
      <feComposite in="SourceGraphic"/>
    </filter>
    <filter id="Rectangle_4" x="31.449" y="7.692" width="1250.45" height="1179.111" filterUnits="userSpaceOnUse">
      <feOffset dy="3" input="SourceAlpha"/>
      <feGaussianBlur stdDeviation="16" result="blur-4"/>
      <feFlood flood-color="#718061"/>
      <feComposite operator="in" in2="blur-4"/>
      <feComposite in="SourceGraphic"/>
    </filter>
    <filter id="Rectangle_5" x="41.933" y="7.142" width="1250.45" height="1179.111" filterUnits="userSpaceOnUse">
      <feOffset dy="3" input="SourceAlpha"/>
      <feGaussianBlur stdDeviation="16" result="blur-5"/>
      <feFlood flood-color="#718061"/>
      <feComposite operator="in" in2="blur-5"/>
      <feComposite in="SourceGraphic"/>
    </filter>
    <filter id="Rectangle_6" x="52.416" y="6.593" width="1250.45" height="1179.111" filterUnits="userSpaceOnUse">
      <feOffset dy="3" input="SourceAlpha"/>
      <feGaussianBlur stdDeviation="16" result="blur-6"/>
      <feFlood flood-color="#718061"/>
      <feComposite operator="in" in2="blur-6"/>
      <feComposite in="SourceGraphic"/>
    </filter>
    <filter id="Rectangle_7" x="62.899" y="6.043" width="1250.45" height="1179.111" filterUnits="userSpaceOnUse">
      <feOffset dy="3" input="SourceAlpha"/>
      <feGaussianBlur stdDeviation="16" result="blur-7"/>
      <feFlood flood-color="#718061"/>
      <feComposite operator="in" in2="blur-7"/>
      <feComposite in="SourceGraphic"/>
    </filter>
    <filter id="Rectangle_8" x="73.382" y="5.494" width="1250.45" height="1179.111" filterUnits="userSpaceOnUse">
      <feOffset dy="3" input="SourceAlpha"/>
      <feGaussianBlur stdDeviation="16" result="blur-8"/>
      <feFlood flood-color="#718061"/>
      <feComposite operator="in" in2="blur-8"/>
      <feComposite in="SourceGraphic"/>
    </filter>
    <filter id="Rectangle_9" x="83.865" y="4.945" width="1250.45" height="1179.111" filterUnits="userSpaceOnUse">
      <feOffset dy="3" input="SourceAlpha"/>
      <feGaussianBlur stdDeviation="16" result="blur-9"/>
      <feFlood flood-color="#718061"/>
      <feComposite operator="in" in2="blur-9"/>
      <feComposite in="SourceGraphic"/>
    </filter>
    <filter id="Rectangle_10" x="94.348" y="4.395" width="1250.45" height="1179.111" filterUnits="userSpaceOnUse">
      <feOffset dy="3" input="SourceAlpha"/>
      <feGaussianBlur stdDeviation="16" result="blur-10"/>
      <feFlood flood-color="#718061"/>
      <feComposite operator="in" in2="blur-10"/>
      <feComposite in="SourceGraphic"/>
    </filter>
    <filter id="Rectangle_11" x="104.832" y="3.846" width="1250.45" height="1179.111" filterUnits="userSpaceOnUse">
      <feOffset dy="3" input="SourceAlpha"/>
      <feGaussianBlur stdDeviation="16" result="blur-11"/>
      <feFlood flood-color="#718061"/>
      <feComposite operator="in" in2="blur-11"/>
      <feComposite in="SourceGraphic"/>
    </filter>
    <filter id="Rectangle_12" x="115.315" y="3.296" width="1250.45" height="1179.111" filterUnits="userSpaceOnUse">
      <feOffset dy="3" input="SourceAlpha"/>
      <feGaussianBlur stdDeviation="16" result="blur-12"/>
      <feFlood flood-color="#718061"/>
      <feComposite operator="in" in2="blur-12"/>
      <feComposite in="SourceGraphic"/>
    </filter>
    <filter id="Rectangle_13" x="125.798" y="2.747" width="1250.45" height="1179.111" filterUnits="userSpaceOnUse">
      <feOffset dy="3" input="SourceAlpha"/>
      <feGaussianBlur stdDeviation="16" result="blur-13"/>
      <feFlood flood-color="#718061"/>
      <feComposite operator="in" in2="blur-13"/>
      <feComposite in="SourceGraphic"/>
    </filter>
    <filter id="Rectangle_14" x="136.281" y="2.198" width="1250.45" height="1179.111" filterUnits="userSpaceOnUse">
      <feOffset dy="3" input="SourceAlpha"/>
      <feGaussianBlur stdDeviation="16" result="blur-14"/>
      <feFlood flood-color="#718061"/>
      <feComposite operator="in" in2="blur-14"/>
      <feComposite in="SourceGraphic"/>
    </filter>
    <filter id="Rectangle_15" x="146.764" y="1.648" width="1250.45" height="1179.111" filterUnits="userSpaceOnUse">
      <feOffset dy="3" input="SourceAlpha"/>
      <feGaussianBlur stdDeviation="16" result="blur-15"/>
      <feFlood flood-color="#718061"/>
      <feComposite operator="in" in2="blur-15"/>
      <feComposite in="SourceGraphic"/>
    </filter>
    <filter id="Rectangle_16" x="157.247" y="1.099" width="1250.45" height="1179.111" filterUnits="userSpaceOnUse">
      <feOffset dy="3" input="SourceAlpha"/>
      <feGaussianBlur stdDeviation="16" result="blur-16"/>
      <feFlood flood-color="#718061"/>
      <feComposite operator="in" in2="blur-16"/>
      <feComposite in="SourceGraphic"/>
    </filter>
    <filter id="Rectangle_17" x="167.731" y="0.549" width="1250.45" height="1179.111" filterUnits="userSpaceOnUse">
      <feOffset dy="3" input="SourceAlpha"/>
      <feGaussianBlur stdDeviation="16" result="blur-17"/>
      <feFlood flood-color="#718061"/>
      <feComposite operator="in" in2="blur-17"/>
      <feComposite in="SourceGraphic"/>
    </filter>
    <filter id="Rectangle_18" x="178.214" y="0" width="1250.45" height="1179.111" filterUnits="userSpaceOnUse">
      <feOffset dy="3" input="SourceAlpha"/>
      <feGaussianBlur stdDeviation="16" result="blur-18"/>
      <feFlood flood-color="#718061"/>
      <feComposite operator="in" in2="blur-18"/>
      <feComposite in="SourceGraphic"/>
    </filter>
  </defs>
  <g id="hero-styler" transform="translate(-708.164 486.178) rotate(-3)">
    <g transform="matrix(1, 0.05, -0.05, 1, 732.64, -448.45)" filter="url(#Rectangle_1)">
      <g id="Rectangle_1-2" data-name="Rectangle 1" transform="translate(422.42 54.34) rotate(33)" fill="none" stroke="#718061" stroke-width="1">
        <rect width="930.083" height="687.458" rx="69" stroke="none"/>
        <rect x="0.5" y="0.5" width="929.083" height="686.458" rx="68.5" fill="none"/>
      </g>
    </g>
    <g transform="matrix(1, 0.05, -0.05, 1, 732.64, -448.45)" filter="url(#Rectangle_2)">
      <g id="Rectangle_2-2" data-name="Rectangle 2" transform="translate(432.9 53.79) rotate(33)" fill="none" stroke="#718061" stroke-width="1">
        <rect width="930.083" height="687.458" rx="69" stroke="none"/>
        <rect x="0.5" y="0.5" width="929.083" height="686.458" rx="68.5" fill="none"/>
      </g>
    </g>
    <g transform="matrix(1, 0.05, -0.05, 1, 732.64, -448.45)" filter="url(#Rectangle_3)">
      <g id="Rectangle_3-2" data-name="Rectangle 3" transform="translate(443.38 53.24) rotate(33)" fill="none" stroke="#718061" stroke-width="1">
        <rect width="930.083" height="687.458" rx="69" stroke="none"/>
        <rect x="0.5" y="0.5" width="929.083" height="686.458" rx="68.5" fill="none"/>
      </g>
    </g>
    <g transform="matrix(1, 0.05, -0.05, 1, 732.64, -448.45)" filter="url(#Rectangle_4)">
      <g id="Rectangle_4-2" data-name="Rectangle 4" transform="translate(453.87 52.69) rotate(33)" fill="none" stroke="#718061" stroke-width="1">
        <rect width="930.083" height="687.458" rx="69" stroke="none"/>
        <rect x="0.5" y="0.5" width="929.083" height="686.458" rx="68.5" fill="none"/>
      </g>
    </g>
    <g transform="matrix(1, 0.05, -0.05, 1, 732.64, -448.45)" filter="url(#Rectangle_5)">
      <g id="Rectangle_5-2" data-name="Rectangle 5" transform="translate(464.35 52.14) rotate(33)" fill="none" stroke="#718061" stroke-width="1">
        <rect width="930.083" height="687.458" rx="69" stroke="none"/>
        <rect x="0.5" y="0.5" width="929.083" height="686.458" rx="68.5" fill="none"/>
      </g>
    </g>
    <g transform="matrix(1, 0.05, -0.05, 1, 732.64, -448.45)" filter="url(#Rectangle_6)">
      <g id="Rectangle_6-2" data-name="Rectangle 6" transform="translate(474.83 51.59) rotate(33)" fill="none" stroke="#718061" stroke-width="1">
        <rect width="930.083" height="687.458" rx="69" stroke="none"/>
        <rect x="0.5" y="0.5" width="929.083" height="686.458" rx="68.5" fill="none"/>
      </g>
    </g>
    <g transform="matrix(1, 0.05, -0.05, 1, 732.64, -448.45)" filter="url(#Rectangle_7)">
      <g id="Rectangle_7-2" data-name="Rectangle 7" transform="translate(485.32 51.04) rotate(33)" fill="none" stroke="#718061" stroke-width="1">
        <rect width="930.083" height="687.458" rx="69" stroke="none"/>
        <rect x="0.5" y="0.5" width="929.083" height="686.458" rx="68.5" fill="none"/>
      </g>
    </g>
    <g transform="matrix(1, 0.05, -0.05, 1, 732.64, -448.45)" filter="url(#Rectangle_8)">
      <g id="Rectangle_8-2" data-name="Rectangle 8" transform="translate(495.8 50.49) rotate(33)" fill="none" stroke="#718061" stroke-width="1">
        <rect width="930.083" height="687.458" rx="69" stroke="none"/>
        <rect x="0.5" y="0.5" width="929.083" height="686.458" rx="68.5" fill="none"/>
      </g>
    </g>
    <g transform="matrix(1, 0.05, -0.05, 1, 732.64, -448.45)" filter="url(#Rectangle_9)">
      <g id="Rectangle_9-2" data-name="Rectangle 9" transform="translate(506.28 49.94) rotate(33)" fill="none" stroke="#718061" stroke-width="1">
        <rect width="930.083" height="687.458" rx="69" stroke="none"/>
        <rect x="0.5" y="0.5" width="929.083" height="686.458" rx="68.5" fill="none"/>
      </g>
    </g>
    <g transform="matrix(1, 0.05, -0.05, 1, 732.64, -448.45)" filter="url(#Rectangle_10)">
      <g id="Rectangle_10-2" data-name="Rectangle 10" transform="translate(516.77 49.4) rotate(33)" fill="none" stroke="#718061" stroke-width="1">
        <rect width="930.083" height="687.458" rx="69" stroke="none"/>
        <rect x="0.5" y="0.5" width="929.083" height="686.458" rx="68.5" fill="none"/>
      </g>
    </g>
    <g transform="matrix(1, 0.05, -0.05, 1, 732.64, -448.45)" filter="url(#Rectangle_11)">
      <g id="Rectangle_11-2" data-name="Rectangle 11" transform="translate(527.25 48.85) rotate(33)" fill="none" stroke="#718061" stroke-width="1">
        <rect width="930.083" height="687.458" rx="69" stroke="none"/>
        <rect x="0.5" y="0.5" width="929.083" height="686.458" rx="68.5" fill="none"/>
      </g>
    </g>
    <g transform="matrix(1, 0.05, -0.05, 1, 732.64, -448.45)" filter="url(#Rectangle_12)">
      <g id="Rectangle_12-2" data-name="Rectangle 12" transform="translate(537.73 48.3) rotate(33)" fill="none" stroke="#718061" stroke-width="1">
        <rect width="930.083" height="687.458" rx="69" stroke="none"/>
        <rect x="0.5" y="0.5" width="929.083" height="686.458" rx="68.5" fill="none"/>
      </g>
    </g>
    <g transform="matrix(1, 0.05, -0.05, 1, 732.64, -448.45)" filter="url(#Rectangle_13)">
      <g id="Rectangle_13-2" data-name="Rectangle 13" transform="translate(548.21 47.75) rotate(33)" fill="none" stroke="#718061" stroke-width="1">
        <rect width="930.083" height="687.458" rx="69" stroke="none"/>
        <rect x="0.5" y="0.5" width="929.083" height="686.458" rx="68.5" fill="none"/>
      </g>
    </g>
    <g transform="matrix(1, 0.05, -0.05, 1, 732.64, -448.45)" filter="url(#Rectangle_14)">
      <g id="Rectangle_14-2" data-name="Rectangle 14" transform="translate(558.7 47.2) rotate(33)" fill="none" stroke="#718061" stroke-width="1">
        <rect width="930.083" height="687.458" rx="69" stroke="none"/>
        <rect x="0.5" y="0.5" width="929.083" height="686.458" rx="68.5" fill="none"/>
      </g>
    </g>
    <g transform="matrix(1, 0.05, -0.05, 1, 732.64, -448.45)" filter="url(#Rectangle_15)">
      <g id="Rectangle_15-2" data-name="Rectangle 15" transform="translate(569.18 46.65) rotate(33)" fill="none" stroke="#718061" stroke-width="1">
        <rect width="930.083" height="687.458" rx="69" stroke="none"/>
        <rect x="0.5" y="0.5" width="929.083" height="686.458" rx="68.5" fill="none"/>
      </g>
    </g>
    <g transform="matrix(1, 0.05, -0.05, 1, 732.64, -448.45)" filter="url(#Rectangle_16)">
      <g id="Rectangle_16-2" data-name="Rectangle 16" transform="translate(579.66 46.1) rotate(33)" fill="none" stroke="#718061" stroke-width="1">
        <rect width="930.083" height="687.458" rx="69" stroke="none"/>
        <rect x="0.5" y="0.5" width="929.083" height="686.458" rx="68.5" fill="none"/>
      </g>
    </g>
    <g transform="matrix(1, 0.05, -0.05, 1, 732.64, -448.45)" filter="url(#Rectangle_17)">
      <g id="Rectangle_17-2" data-name="Rectangle 17" transform="translate(590.15 45.55) rotate(33)" fill="none" stroke="#718061" stroke-width="1">
        <rect width="930.083" height="687.458" rx="69" stroke="none"/>
        <rect x="0.5" y="0.5" width="929.083" height="686.458" rx="68.5" fill="none"/>
      </g>
    </g>
    <g transform="matrix(1, 0.05, -0.05, 1, 732.64, -448.45)" filter="url(#Rectangle_18)">
      <g id="Rectangle_18-2" data-name="Rectangle 18" transform="translate(600.63 45) rotate(33)" fill="#718061" stroke="#718061" stroke-width="1">
        <rect width="930.083" height="687.458" rx="69" stroke="none"/>
        <rect x="0.5" y="0.5" width="929.083" height="686.458" rx="68.5" fill="none"/>
      </g>
    </g>
  </g>
</svg>
