<svg id="linkedin-logo" xmlns="http://www.w3.org/2000/svg" width="41.211" height="41.211" viewBox="0 0 41.211 41.211">
  <path id="linkedin-box" d="M4.579,41.211H36.632a4.579,4.579,0,0,0,4.579-4.579V4.579A4.579,4.579,0,0,0,36.632,0H4.579A4.579,4.579,0,0,0,0,4.579V36.632A4.579,4.579,0,0,0,4.579,41.211Z" fill="#007ebb" fill-rule="evenodd"/>
  <path id="linkedin-in" d="M39.763,39.763H33.648V29.347c0-2.856-1.085-4.452-3.345-4.452-2.459,0-3.744,1.661-3.744,4.452V39.763H20.665V19.921h5.894v2.673a6.922,6.922,0,0,1,5.983-3.279c4.209,0,7.222,2.57,7.222,7.886ZM13.634,17.323a3.662,3.662,0,1,1,3.633-3.661A3.648,3.648,0,0,1,13.634,17.323Zm-3.043,22.44h6.145V19.921H10.591Z" transform="translate(-4.276 -4.276)" fill="#fff" fill-rule="evenodd"/>
</svg>
