<svg id="nextjs" xmlns="http://www.w3.org/2000/svg" width="212.691" height="42.88" viewBox="0 0 212.691 42.88">
  <path id="Path_36" data-name="Path 36" d="M261.919.033h37.047V6.871h-14.7V42.844h-7.349V6.871h-15Z" transform="translate(-120.528 -0.015)" fill="#2e1921"/>
  <path id="Path_37" data-name="Path 37" d="M117.471.033V6.871h-29.7v11h23.881v6.838H87.776v11.3h29.7v6.838H80.427V6.871h0V.033Z" transform="translate(-37.009 -0.015)" fill="#2e1921"/>
  <path id="Path_38" data-name="Path 38" d="M175.122.066h-9.616L199.95,42.878h9.645L192.37,21.487,209.567.1,199.95.114,187.556,15.507Z" transform="translate(-76.162 -0.03)" fill="#2e1921"/>
  <path id="Path_39" data-name="Path 39" d="M184.967,51.611l-4.816-5.988-14.7,18.251H175.1Z" transform="translate(-76.138 -20.994)" fill="#2e1921"/>
  <path id="Path_40" data-name="Path 40" d="M43.676,42.829,9.185,0H0V42.811H7.348V9.151l27.1,33.678Z" fill="#2e1921" fill-rule="evenodd"/>
  <path id="Path_41" data-name="Path 41" d="M331.947,75.6a1.9,1.9,0,0,1-1.379-.559A1.8,1.8,0,0,1,330,73.683a1.779,1.779,0,0,1,.568-1.339,1.9,1.9,0,0,1,1.379-.559,1.881,1.881,0,0,1,1.354.559,1.816,1.816,0,0,1,.588,1.339,1.857,1.857,0,0,1-.274.966,1.984,1.984,0,0,1-.712.692A1.837,1.837,0,0,1,331.947,75.6Z" transform="translate(-151.857 -33.033)" fill="#2e1921"/>
  <path id="Path_42" data-name="Path 42" d="M349.849,45.445h3.256V57.99a5.8,5.8,0,0,1-.742,2.968,4.936,4.936,0,0,1-2.051,1.908,6.679,6.679,0,0,1-3.052.667,7.012,7.012,0,0,1-2.858-.564,4.6,4.6,0,0,1-2.011-1.668,4.8,4.8,0,0,1-.742-2.752h3.262a2.432,2.432,0,0,0,.323,1.246,2.081,2.081,0,0,0,.866.8,2.836,2.836,0,0,0,1.284.28,2.532,2.532,0,0,0,1.334-.329,2.086,2.086,0,0,0,.837-.971,4,4,0,0,0,.294-1.585Z" transform="translate(-157.218 -20.913)" fill="#2e1921"/>
  <path id="Path_43" data-name="Path 43" d="M378.748,50.147a2.366,2.366,0,0,0-1.035-1.776,4.066,4.066,0,0,0-2.375-.638,4.608,4.608,0,0,0-1.757.3,2.642,2.642,0,0,0-1.125.829,2.025,2.025,0,0,0-.4,1.192,1.747,1.747,0,0,0,.264.967,2.167,2.167,0,0,0,.712.692,4.754,4.754,0,0,0,1,.476q.552.191,1.1.324l1.7.417a11.736,11.736,0,0,1,1.977.638,7,7,0,0,1,1.707,1.011,4.526,4.526,0,0,1,1.2,1.472,4.378,4.378,0,0,1,.443,2.021,4.764,4.764,0,0,1-.812,2.757,5.349,5.349,0,0,1-2.35,1.855,9.312,9.312,0,0,1-3.709.667,9.45,9.45,0,0,1-3.659-.648,5.191,5.191,0,0,1-3.366-4.892h3.227a2.707,2.707,0,0,0,.582,1.55,3.137,3.137,0,0,0,1.339.922,5.384,5.384,0,0,0,1.852.3,5.169,5.169,0,0,0,1.882-.319,2.942,2.942,0,0,0,1.265-.888,2.077,2.077,0,0,0,.468-1.335,1.717,1.717,0,0,0-.413-1.158,3.174,3.174,0,0,0-1.135-.765,11.663,11.663,0,0,0-1.7-.554l-2.061-.52a8.267,8.267,0,0,1-3.531-1.722,3.9,3.9,0,0,1-1.294-3.071,4.526,4.526,0,0,1,.872-2.762,5.664,5.664,0,0,1,2.37-1.84A8.388,8.388,0,0,1,375.383,45a8.09,8.09,0,0,1,3.381.657,5.509,5.509,0,0,1,2.285,1.82,4.6,4.6,0,0,1,.857,2.669Z" transform="translate(-169.463 -20.708)" fill="#2e1921"/>
</svg>
