<svg id="nodejs" xmlns="http://www.w3.org/2000/svg" xmlns:xlink="http://www.w3.org/1999/xlink" width="194.542" height="119.147" viewBox="0 0 194.542 119.147">
  <defs>
    <clipPath id="clip-path">
      <path id="Path_6" data-name="Path 6" d="M214,226.224l-18.528,10.694a2.236,2.236,0,0,0-1.12,1.938v21.4a2.236,2.236,0,0,0,1.12,1.938L214,272.9a2.243,2.243,0,0,0,2.238,0l18.526-10.7a2.241,2.241,0,0,0,1.117-1.938v-21.4a2.236,2.236,0,0,0-1.121-1.938l-18.523-10.694a2.252,2.252,0,0,0-2.243,0" transform="translate(-194.354 -225.925)"/>
    </clipPath>
    <linearGradient id="linear-gradient" x1="-0.847" y1="-1.034" x2="-0.838" y2="-1.034" gradientUnits="objectBoundingBox">
      <stop offset="0.3" stop-color="#3e863d"/>
      <stop offset="0.5" stop-color="#55934f"/>
      <stop offset="0.8" stop-color="#5aad45"/>
    </linearGradient>
    <clipPath id="clip-path-2">
      <path id="Path_10" data-name="Path 10" d="M216.391,225.942a2.26,2.26,0,0,0-.895.287l-18.475,10.663,19.922,36.286a2.221,2.221,0,0,0,.8-.274l18.528-10.7a2.245,2.245,0,0,0,1.082-1.529l-20.309-34.694a2.327,2.327,0,0,0-.453-.045c-.062,0-.123,0-.185.009" transform="translate(-197.021 -225.934)"/>
    </clipPath>
    <linearGradient id="linear-gradient-2" x1="-2.148" y1="-2.103" x2="-2.138" y2="-2.103" gradientUnits="objectBoundingBox">
      <stop offset="0.16" stop-color="#6bbf47"/>
      <stop offset="0.38" stop-color="#79b461"/>
      <stop offset="0.47" stop-color="#75ac64"/>
      <stop offset="0.7" stop-color="#659e5a"/>
      <stop offset="0.9" stop-color="#3e863d"/>
    </linearGradient>
    <clipPath id="clip-path-3">
      <path id="Path_8" data-name="Path 8" d="M195.4,261.7a2.241,2.241,0,0,0,.66.579l15.893,9.18,2.647,1.522a2.246,2.246,0,0,0,1.29.292,2.289,2.289,0,0,0,.44-.08l19.541-35.78a2.214,2.214,0,0,0-.521-.413l-12.132-7.006L216.8,226.3a2.34,2.34,0,0,0-.581-.233Zm0,0" transform="translate(-195.398 -226.069)"/>
    </clipPath>
    <linearGradient id="linear-gradient-3" x1="-0.742" y1="-0.932" x2="-0.737" y2="-0.932" gradientUnits="objectBoundingBox">
      <stop offset="0.57" stop-color="#3e863d"/>
      <stop offset="0.72" stop-color="#619857"/>
      <stop offset="1" stop-color="#76ac64"/>
    </linearGradient>
  </defs>
  <path id="Path_1" data-name="Path 1" d="M191.547,209.852a3.7,3.7,0,0,1-1.843-.493l-5.865-3.472c-.876-.49-.449-.663-.16-.763a11.842,11.842,0,0,0,2.652-1.209.445.445,0,0,1,.437.031l4.506,2.674a.594.594,0,0,0,.544,0l17.569-10.141a.554.554,0,0,0,.268-.475V175.73a.564.564,0,0,0-.272-.484l-17.562-10.132a.54.54,0,0,0-.541,0l-17.558,10.132a.56.56,0,0,0-.278.479V196a.541.541,0,0,0,.273.471l4.811,2.779c2.612,1.306,4.209-.233,4.209-1.781v-20.01a.5.5,0,0,1,.51-.506h2.225a.5.5,0,0,1,.506.506v20.018c0,3.483-1.9,5.484-5.2,5.484a7.531,7.531,0,0,1-4.05-1.1l-4.609-2.656A3.715,3.715,0,0,1,170.273,196V175.725a3.692,3.692,0,0,1,1.843-3.2L189.7,162.378a3.852,3.852,0,0,1,3.694,0l17.564,10.15a3.706,3.706,0,0,1,1.843,3.2V196a3.717,3.717,0,0,1-1.843,3.2L193.4,209.35a3.693,3.693,0,0,1-1.851.493" transform="translate(-95.392 -90.705)" fill="#689f63"/>
  <path id="Path_2" data-name="Path 2" d="M219.141,207.79c-7.687,0-9.3-3.529-9.3-6.488a.505.505,0,0,1,.509-.506h2.269a.508.508,0,0,1,.5.43c.343,2.312,1.363,3.479,6.012,3.479,3.7,0,5.277-.836,5.277-2.8,0-1.13-.449-1.97-6.2-2.533-4.811-.475-7.784-1.535-7.784-5.383,0-3.545,2.99-5.655,8-5.655,5.625,0,8.413,1.953,8.765,6.148a.512.512,0,0,1-.136.391.523.523,0,0,1-.374.163H224.4a.5.5,0,0,1-.493-.4c-.55-2.432-1.878-3.21-5.488-3.21-4.042,0-4.512,1.407-4.512,2.463,0,1.28.554,1.654,6.007,2.375,5.4.717,7.964,1.728,7.964,5.524,0,3.826-3.193,6.02-8.76,6.02m21.4-21.5h.589a.512.512,0,0,0,.576-.537c0-.519-.356-.519-.554-.519h-.607Zm-.717-1.662H241.1c.449,0,1.328,0,1.328,1a.873.873,0,0,1-.717.932c.523.035.559.378.629.862a3.706,3.706,0,0,0,.2,1h-.8c-.022-.176-.145-1.143-.145-1.2-.053-.215-.128-.321-.4-.321h-.664v1.522H239.8Zm-1.57,1.891a2.839,2.839,0,1,0,2.828-2.832,2.843,2.843,0,0,0-2.828,2.832m6.227.013a3.386,3.386,0,1,1-3.386-3.386,3.4,3.4,0,0,1,3.386,3.386" transform="translate(-117.559 -102.612)" fill="#689f63"/>
  <path id="Path_3" data-name="Path 3" d="M41.75,39.821a2.25,2.25,0,0,0-1.125-1.955L22,27.149a2.175,2.175,0,0,0-1.024-.295h-.193a2.213,2.213,0,0,0-1.029.295L1.127,37.867A2.267,2.267,0,0,0,0,39.824L.041,68.69a1.108,1.108,0,0,0,.559.972,1.064,1.064,0,0,0,1.117,0L12.79,63.321a2.271,2.271,0,0,0,1.126-1.953V47.882a2.243,2.243,0,0,1,1.124-1.948l4.714-2.715a2.237,2.237,0,0,1,1.126-.3,2.2,2.2,0,0,1,1.119.3l4.712,2.714a2.244,2.244,0,0,1,1.126,1.948V61.366a2.279,2.279,0,0,0,1.128,1.953l11.066,6.337a1.1,1.1,0,0,0,1.126,0,1.129,1.129,0,0,0,.558-.972Zm87.9,15.03a.559.559,0,0,1-.281.486l-6.4,3.688a.564.564,0,0,1-.562,0l-6.4-3.688a.557.557,0,0,1-.281-.486V47.465a.566.566,0,0,1,.277-.488l6.394-3.694a.568.568,0,0,1,.567,0l6.4,3.694a.561.561,0,0,1,.281.488ZM131.375.143a1.125,1.125,0,0,0-1.674.984V29.712a.787.787,0,0,1-1.18.682l-4.666-2.687a2.246,2.246,0,0,0-2.248,0L102.973,38.459a2.245,2.245,0,0,0-1.126,1.944V61.917a2.252,2.252,0,0,0,1.126,1.948l18.633,10.761a2.259,2.259,0,0,0,2.25,0L142.49,63.861a2.255,2.255,0,0,0,1.126-1.948V8.3a2.255,2.255,0,0,0-1.157-1.966ZM193.423,47.27a2.25,2.25,0,0,0,1.118-1.945V40.112a2.251,2.251,0,0,0-1.12-1.946L174.907,27.418a2.248,2.248,0,0,0-2.256,0L154.023,38.17a2.246,2.246,0,0,0-1.126,1.948v21.5a2.258,2.258,0,0,0,1.135,1.957l18.51,10.55a2.244,2.244,0,0,0,2.208.013l11.2-6.223a1.123,1.123,0,0,0,.009-1.957L167.211,55.207a1.116,1.116,0,0,1-.567-.972V47.489a1.116,1.116,0,0,1,.563-.975l5.831-3.364a1.112,1.112,0,0,1,1.121,0L180,46.514a1.121,1.121,0,0,1,.563.972v5.3a1.122,1.122,0,0,0,1.689.972Zm0,0" transform="translate(0 0)" fill="#2e1921" fill-rule="evenodd"/>
  <path id="Path_4" data-name="Path 4" d="M389.706,105.126a.427.427,0,0,1,.431,0l3.575,2.063a.432.432,0,0,1,.215.374v4.129a.432.432,0,0,1-.215.374l-3.575,2.063a.427.427,0,0,1-.431,0l-3.573-2.063a.43.43,0,0,1-.22-.374v-4.129a.426.426,0,0,1,.216-.374Zm0,0" transform="translate(-216.199 -58.862)" fill="#689f63" fill-rule="evenodd"/>
  <g id="Group_1" data-name="Group 1" transform="translate(51.035 27.226)" clip-path="url(#clip-path)">
    <path id="Path_5" data-name="Path 5" d="M230.754,214.193,178.547,188.6l-26.769,54.608L203.984,268.8Zm0,0" transform="translate(-170.502 -205.016)" fill="url(#linear-gradient)"/>
  </g>
  <g id="Group_3" data-name="Group 3" transform="translate(52.208 27.23)" clip-path="url(#clip-path-2)">
    <path id="Path_9" data-name="Path 9" d="M197.02,225.934v47.245h40.32V225.934Zm0,0" transform="translate(-197.02 -225.934)" fill="url(#linear-gradient-2)"/>
  </g>
  <g id="Group_2" data-name="Group 2" transform="translate(51.494 27.289)" clip-path="url(#clip-path-3)">
    <path id="Path_7" data-name="Path 7" d="M144.07,218.12l36.864,49.893,48.753-36.02L192.821,182.1Zm0,0" transform="translate(-166.643 -201.437)" fill="url(#linear-gradient-3)"/>
  </g>
</svg>
