<svg xmlns="http://www.w3.org/2000/svg" width="44" height="44" viewBox="0 0 44 44">
  <g id="phone-logo" transform="translate(2 2)">
    <path id="Path_111" data-name="Path 111" d="M3,8.556A34.444,34.444,0,0,0,37.444,43q1.287,0,2.552-.093a4.344,4.344,0,0,0,1.89-.36,2.355,2.355,0,0,0,.893-.961A4.855,4.855,0,0,0,43,39.529V33.268a5.062,5.062,0,0,0-.148-1.73,2.22,2.22,0,0,0-.617-.881,5.067,5.067,0,0,0-1.576-.73l-7.126-2.591a5.245,5.245,0,0,0-1.937-.5,2.223,2.223,0,0,0-1.141.4,5.238,5.238,0,0,0-1.186,1.612l-1.825,3.041A26.891,26.891,0,0,1,14.111,18.556l3.041-1.825a5.24,5.24,0,0,0,1.612-1.186,2.222,2.222,0,0,0,.4-1.141,5.244,5.244,0,0,0-.5-1.937L16.073,5.34a5.067,5.067,0,0,0-.73-1.576,2.222,2.222,0,0,0-.881-.617A5.067,5.067,0,0,0,12.732,3H6.471a4.857,4.857,0,0,0-2.058.221,2.356,2.356,0,0,0-.961.893A4.341,4.341,0,0,0,3.093,6Q3,7.268,3,8.556Z" transform="translate(-3 -3)" fill="none" stroke="#000" stroke-linecap="round" stroke-linejoin="round" stroke-width="4"/>
  </g>
</svg>
