<svg xmlns="http://www.w3.org/2000/svg" width="103.162" height="120.581" viewBox="0 0 103.162 120.581">
  <g id="reactjs" transform="translate(0 -0.112)">
    <path id="Path_27" data-name="Path 27" d="M1834.054,732.19a52.646,52.646,0,0,1,1.4-11.39c.141-.843,0-1.125-.843-1.406a46.8,46.8,0,0,1-13.9-6.609,27.069,27.069,0,0,1-4.211-3.8c-3.51-4.218-3.51-9,.14-13.218,3.228-3.8,7.58-6.047,11.932-8.016a50.538,50.538,0,0,1,5.9-2.249c.7-.141.842-.563.7-1.266-.983-4.921-1.825-9.843-1.263-14.905a22.529,22.529,0,0,1,1.685-6.89c1.965-4.359,5.615-6.328,10.388-5.625,4.492.563,8.423,2.812,12.213,5.344a55.367,55.367,0,0,1,6.317,5.062c.7.563.983.563,1.685,0a51.079,51.079,0,0,1,12.354-8.578,22.814,22.814,0,0,1,5.474-1.828c5.475-.984,9.546,1.406,11.512,6.609A30.574,30.574,0,0,1,1896.8,675.8a43.823,43.823,0,0,1-1.263,8.437c-.14.7,0,1.125.7,1.266a50.968,50.968,0,0,1,13.2,6.047,35.328,35.328,0,0,1,4.913,4.219c3.51,4.078,3.649,9,.14,13.218-3.088,3.656-7.019,5.906-11.231,7.875a67.168,67.168,0,0,1-6.738,2.672c-.7.281-.843.422-.7,1.265a46.955,46.955,0,0,1,1.264,15.328,19.078,19.078,0,0,1-2.527,8.156,9.211,9.211,0,0,1-7.581,4.219,18.946,18.946,0,0,1-9.125-2.531,53.6,53.6,0,0,1-11.37-8.016c-.562-.562-.842-.562-1.4,0a45.225,45.225,0,0,1-13.757,9.141,20.282,20.282,0,0,1-5.755,1.406,9.063,9.063,0,0,1-9.265-5.484c-1.685-3.093-2.246-6.609-2.246-10.828m31.445-46.544c-2.948,0-5.755.14-8.7.28a1.475,1.475,0,0,0-1.264.7,115.177,115.177,0,0,0-8.7,15.187c-.141.421-.281.7,0,1.125a111.278,111.278,0,0,0,8.844,15.327,1.277,1.277,0,0,0,1.124.562,117.918,117.918,0,0,0,17.266,0,1.762,1.762,0,0,0,1.544-.843,106.384,106.384,0,0,0,8.563-15.046,1.553,1.553,0,0,0,0-1.125,107.2,107.2,0,0,0-8.7-15.046,1.861,1.861,0,0,0-1.4-.844c-2.807-.141-5.755-.141-8.563-.28m-26.812,45.419V733.6a20.225,20.225,0,0,0,1.4,7.032,4.754,4.754,0,0,0,5.193,3.093,14.33,14.33,0,0,0,4.072-.985,45.379,45.379,0,0,0,12.353-8.3c.562-.422.281-.7,0-1.125a79.4,79.4,0,0,1-7.581-9.14,1.759,1.759,0,0,0-1.544-.844,103.526,103.526,0,0,1-11.511-1.968c-.7-.141-.982-.141-1.123.7a49.575,49.575,0,0,0-1.263,9m53.625-57.372v-1.547c-.141-2.812-.281-5.625-1.544-8.3a4.268,4.268,0,0,0-4.211-2.672,9.422,9.422,0,0,0-3.369.563c-5.335,1.828-9.687,5.2-13.757,8.859-.421.422-.141.562.141.984,2.807,2.953,5.334,6.187,7.861,9.422a1.276,1.276,0,0,0,1.123.562,86.523,86.523,0,0,1,11.792,2.11c.562.141.842.141.982-.563.421-3.094.843-6.187.983-9.421m20.074,28.827a6.749,6.749,0,0,0-.982-2.812,12.089,12.089,0,0,0-2.527-2.812c-4.072-3.375-8.844-5.343-13.9-7.031-.7-.281-.843.141-.982.7a81.981,81.981,0,0,1-4.212,11.109,1.64,1.64,0,0,0,0,1.406,115.729,115.729,0,0,1,4.071,10.968c.28.7.421.985,1.263.7a49.29,49.29,0,0,0,9.686-4.218,20.539,20.539,0,0,0,6.317-5.2,3.978,3.978,0,0,0,1.263-2.812m-93.773-.141a6.264,6.264,0,0,0,1.966,4.079c4.352,4.5,9.826,6.609,15.582,8.577.562.141.7-.141.7-.562a78.867,78.867,0,0,1,4.211-11.39,1.939,1.939,0,0,0,0-1.265,78.892,78.892,0,0,1-4.211-11.391c-.281-.7-.562-.7-1.123-.562a60.914,60.914,0,0,0-7.02,2.812c-3.088,1.547-6.176,3.234-8.422,5.906a7.754,7.754,0,0,0-1.685,3.8m73.7,30.936a52.17,52.17,0,0,0-1.263-11.39c-.141-.562-.141-.984-.983-.7a80.893,80.893,0,0,1-11.651,2.109c-.7,0-.982.422-1.4.844a77.822,77.822,0,0,1-7.581,9c-.562.562-.421.843.141,1.265a47.585,47.585,0,0,0,5.9,4.641c2.948,1.968,6.036,3.8,9.546,4.359,3.369.562,4.913-.422,6.176-3.516a18.482,18.482,0,0,0,1.124-6.609m-47.729-72a4.045,4.045,0,0,0-3.65,1.547,9.155,9.155,0,0,0-1.544,3.094c-1.4,5.765-.7,11.531.562,17.3.141.7.562.563.982.422a68.831,68.831,0,0,1,11.792-1.969c.562,0,.843-.281,1.263-.7a79.347,79.347,0,0,1,7.581-9.141c.562-.562.421-.844,0-1.265a48.9,48.9,0,0,0-8.142-6.047c-2.808-1.688-5.615-3.094-8.844-3.234m15.161,62.434c1.824,2.39,3.509,4.359,5.334,6.328.421.562.7.141.982-.141,1.4-1.547,2.668-3.094,4.072-4.641.28-.422.842-.843.982-1.406-3.79,0-7.44,0-11.37-.141m-15.582-27c1.825-3.516,3.65-6.609,5.755-9.984a64.658,64.658,0,0,0-7.861,1.547c-.562.141-.7.281-.562.843a70.853,70.853,0,0,0,2.667,7.594m36.919,21.374c2.948-.422,5.475-.985,8-1.547.421-.141.562-.281.421-.7a65.037,65.037,0,0,0-2.807-7.734,89.371,89.371,0,0,1-5.616,9.984m-21.337-36.982a104.729,104.729,0,0,1,11.511,0,61.154,61.154,0,0,0-5.474-6.328c-.141-.14-.281-.422-.7-.14-1.825,1.969-3.51,4.078-5.334,6.469m27.092,15.608a77.623,77.623,0,0,0,2.527-7.453c.14-.422.281-.844-.421-.984a62.7,62.7,0,0,0-8-1.406,75.893,75.893,0,0,1,5.9,9.843m-36.919,21.374c-2.105-3.234-3.93-6.469-5.755-9.844a61.58,61.58,0,0,0-2.667,7.593c-.141.281-.141.563.281.7,2.667.562,5.194,1.125,8.142,1.547" transform="translate(-1813.891 -656.602)" fill="#2e1921"/>
    <path id="Path_28" data-name="Path 28" d="M1889.533,2116.4c1.4,2.109,2.667,4.077,4.211,6.327h-3.369c-.422,0-.562-.422-.7-.7-.982-1.548-2.105-3.094-3.088-4.641a1.762,1.762,0,0,0-1.544-.843c-.562,0-.7.14-.7.7v4.5c0,.7-.14.844-.842.844-2.387,0-2.387,0-2.387-2.391v-12.656c0-.843.141-1.124.983-.983,2.105.14,4.211-.141,6.176.14,2.668.281,4.072,1.407,4.352,3.515.421,3.235-.421,5.063-3.088,6.188m-5.194-4.641c0,2.251,0,2.251,2.246,2.11a2.385,2.385,0,0,0,.982-.141c1.4-.281,1.825-.7,1.825-2.251,0-1.265-.562-1.687-1.965-1.827h-.982c-2.106,0-2.106,0-2.106,2.108" transform="translate(-1876.39 -2002.851)" fill="#2e1921"/>
    <path id="Path_29" data-name="Path 29" d="M2981.984,2121.337c-2.527,0-4.492-.422-6.036-2.251-.42-.562-.561-.843.141-1.264.14,0,.281-.141.421-.282.842-.843,1.4-1.264,2.526,0,1.124,1.125,2.808,1.125,4.352.7a1.482,1.482,0,0,0,1.124-1.407,1.519,1.519,0,0,0-.983-1.546,31.331,31.331,0,0,0-3.368-1.126,6.83,6.83,0,0,1-1.544-.562,4.336,4.336,0,0,1-2.948-4.219,4.223,4.223,0,0,1,3.088-4.219c2.808-.985,6.458-.281,8,1.687.421.562.7.844-.14,1.266-.14.14-.422.281-.561.421-.7.7-1.264,1.125-2.106,0-.983-1.125-2.527-1.125-3.931-.7a1.35,1.35,0,0,0-1.123,1.266,1.4,1.4,0,0,0,.983,1.406c1.263.422,2.667.842,3.93,1.124,2.948.844,4.071,2.672,3.65,5.484-.281,2.11-1.825,3.516-4.212,3.938a2.082,2.082,0,0,1-1.263.281" transform="translate(-2894.02 -2001.185)" fill="#2e1921"/>
    <path id="Path_30" data-name="Path 30" d="M2091.829,2169.085a4.283,4.283,0,0,1-3.369,1.969c-.562,0-1.123.141-1.685.141-3.93-.141-5.615-1.969-5.755-5.906a10.665,10.665,0,0,1,.14-2.11c.7-3.937,4.352-5.906,8.142-4.219a4.425,4.425,0,0,1,2.667,4.078c.281,2.531.281,2.531-2.246,2.531h-4.914c-.842,0-.842.281-.7.985a3.1,3.1,0,0,0,4.633,1.687c.982-.7,1.4-.281,2.105.28a6.116,6.116,0,0,1,.983.563m-5.195-5.484h1.685c.562,0,.842-.141.7-.7-.28-1.125-.7-1.687-1.824-1.828-1.4-.141-2.246.281-2.668,1.406s-.421,1.266.843,1.266a3.845,3.845,0,0,1,1.263-.142" transform="translate(-2062.262 -2050.98)" fill="#2e1921"/>
    <path id="Path_31" data-name="Path 31" d="M2273.95,2169.519a5.887,5.887,0,0,1-4.492,1.547,3.462,3.462,0,0,1-3.229-3.093,3.649,3.649,0,0,1,2.386-4.219,12.845,12.845,0,0,1,3.931-.7c.421,0,1.123.281,1.263-.562,0-.7-.14-1.406-.842-1.547a3.448,3.448,0,0,0-3.65.422c-.562.562-.842.422-1.4,0-1.685-1.125-1.685-1.547.14-2.391a8.629,8.629,0,0,1,6.738-.14,2.748,2.748,0,0,1,1.825,2.672c.14,2.812,0,5.765.14,8.577,0,.422-.14.563-.562.563h-.982c-.982.282-1.544.141-1.263-1.124m-.281-3.235c-.14-.141.562-1.124-.421-.984a7.324,7.324,0,0,0-2.948.562c-1.123.563-1.4,2.11-.561,2.672a2.586,2.586,0,0,0,2.667-.141c.842-.563,1.544-.844,1.263-2.109" transform="translate(-2234.415 -2050.852)" fill="#2e1921"/>
    <path id="Path_32" data-name="Path 32" d="M2452.84,2165.217a8.178,8.178,0,0,1,.421-2.672c1.123-3.657,6.458-5.063,9.265-2.532.561.562.842.985-.141,1.547-.7.422-1.263.985-2.246.281a2.613,2.613,0,0,0-4.071,1.829,5.781,5.781,0,0,0,0,3.094,2.729,2.729,0,0,0,4.211,1.828,1.511,1.511,0,0,1,2.106.14c1.123.844,1.264.985,0,1.828a6.46,6.46,0,0,1-6.739.282c-2.386-.984-2.807-3.235-2.807-5.625" transform="translate(-2407.971 -2051.33)" fill="#2e1921"/>
    <path id="Path_33" data-name="Path 33" d="M2825.637,2115.61v4.64c.141,4.219-2.105,5.063-5.615,5.063a1.262,1.262,0,0,1-.7-.141c-2.527-.281-2.668-.423-1.544-2.812a.588.588,0,0,1,.842-.423c3.229.844,3.791.423,3.791-2.811v-9.281c0-.7.14-.845.842-.845,2.386,0,2.386,0,2.386,2.251Z" transform="translate(-2746.656 -2005.155)" fill="#2e1921"/>
    <path id="Path_34" data-name="Path 34" d="M2615.9,2126.563v-2.953c0-.563-.141-.844-.7-.844-1.123.14-.842-.562-.842-1.125s-.281-1.406.842-1.125c.562.142.842-.141.7-.843v-1.125c-.281-1.266.28-1.547,1.544-1.547,1.544.141,1.544,0,1.544,1.547v.985c-.14.7.28.843.842.843h.842c.983-.14,1.123.283,1.123,1.266s-.281,1.266-1.264,1.125h-.982c-.561-.141-.7.281-.7.7v5.2c0,1.406.7,1.97,1.965,1.547,1.544-.421.983.845,1.263,1.406.421.845-.14.985-.842.985-.421,0-.982.141-1.4.141-2.667.14-3.93-1.126-4.071-3.8a6.883,6.883,0,0,0,.141-2.389Z" transform="translate(-2558.117 -2012.583)" fill="#2e1921"/>
    <path id="Path_35" data-name="Path 35" d="M2430.092,1179.152a9.475,9.475,0,0,1-9.546,9.562,9.594,9.594,0,0,1-9.687-9.562,9.616,9.616,0,1,1,19.232,0" transform="translate(-2368.939 -1132.782)" fill="#2e1921"/>
  </g>
</svg>
