<svg id="tap" xmlns="http://www.w3.org/2000/svg" xmlns:xlink="http://www.w3.org/1999/xlink" width="100" height="100" viewBox="0 0 100 100">
  <defs>
    <linearGradient id="linear-gradient" x1="0.5" x2="0.5" y2="1" gradientUnits="objectBoundingBox">
      <stop offset="0" stop-color="#4a5df2"/>
      <stop offset="1" stop-color="#4bbec5"/>
    </linearGradient>
  </defs>
  <path id="tap_2022_dark_1500x_1_Traced_" data-name="tap 2022 dark@1500x 1 (Traced)" d="M47.765.016A55.221,55.221,0,0,0,41.62.675,49.754,49.754,0,0,0,18.643,11.009a52.612,52.612,0,0,0-7.514,7.48A49.772,49.772,0,0,0,.662,41.627,45.068,45.068,0,0,0,0,50.006a45.066,45.066,0,0,0,.662,8.379A49.742,49.742,0,0,0,11,81.359a52.613,52.613,0,0,0,7.481,7.513A49.784,49.784,0,0,0,41.62,99.338,45.088,45.088,0,0,0,50,100a45.088,45.088,0,0,0,8.38-.662A49.861,49.861,0,0,0,81.521,88.872,52.61,52.61,0,0,0,89,81.359,49.838,49.838,0,0,0,99.338,58.384,45.067,45.067,0,0,0,100,50.006a45.066,45.066,0,0,0-.662-8.378A49.838,49.838,0,0,0,89,18.653a52.616,52.616,0,0,0-7.481-7.513A49.911,49.911,0,0,0,60.948,1.173,54,54,0,0,0,53.77.108C52.908.036,48.532-.031,47.765.016Zm4.746,3.364A46.166,46.166,0,0,1,71.082,8.351,46.638,46.638,0,1,1,47.3,3.385C48.678,3.3,51.154,3.3,52.511,3.379ZM47.6,7.422a43.079,43.079,0,0,0-7.8,1.2,42.62,42.62,0,0,0-17.453,9.007,56.329,56.329,0,0,0-4.135,4.063A42.559,42.559,0,0,0,47.165,92.365c1.2.087,4.592.086,5.838,0A42.555,42.555,0,0,0,84.459,74.988a44.325,44.325,0,0,0,3.93-6.58A42.547,42.547,0,0,0,56.071,7.784,34.194,34.194,0,0,0,50.5,7.416C49.106,7.405,47.8,7.408,47.6,7.422ZM36.723,41.4a2.4,2.4,0,0,1-2.4,2.4H30.186l-.017,8.755-.012,6.17a2.608,2.608,0,0,1-2.59,2.6,2.573,2.573,0,0,1-2.59-2.568l-.012-6.171-.017-8.756-3.286-.017-.885,0a2.407,2.407,0,0,1,0-4.814H34.322A2.4,2.4,0,0,1,36.723,41.4Zm20.361,8.732c2.6,6.1,4.724,11.126,4.724,11.157s-1.156.057-2.569.057H58.223A1.551,1.551,0,0,1,56.671,59.8a3.218,3.218,0,0,0-1.214-2.517l-.788-.627a5.3,5.3,0,0,1-2-4.151V50.03a4.969,4.969,0,0,0-1.457-3.515l-.024-.024a2,2,0,0,0-2.845.021,4.99,4.99,0,0,0-1.412,3.478v2.529a5.289,5.289,0,0,1-1.967,4.116l-.764.617a3.283,3.283,0,0,0-1.221,2.517,1.574,1.574,0,0,1-1.564,1.556l-1.047.007a10.15,10.15,0,0,1-2.56-.067c.018-.046,2.158-5.075,4.754-11.175l3.727-8.756a3.81,3.81,0,0,1,3.532-2.318,3.868,3.868,0,0,1,3.532,2.353Zm17.7-11.06a9.349,9.349,0,0,1,3.536,1.178,8.613,8.613,0,0,1,2.366,2.378A7.552,7.552,0,0,1,81.711,46.7a7.187,7.187,0,0,1-.147,1.763c-.731,3.434-3.437,5.59-7.537,6.006-.38.038-1.573.07-2.652.07H69.414v4.2a2.6,2.6,0,0,1-5.2,0V43.986A4.987,4.987,0,0,1,69.2,39C72.41,39,74.4,39.026,74.785,39.073ZM69.414,46.8v3.068h1.751c2.571,0,3.235-.1,4.016-.63a3.133,3.133,0,0,0,.981-3.872,2.455,2.455,0,0,0-1.236-1.2c-.758-.373-1.238-.432-3.516-.432h-2ZM50.586,49.978a1.914,1.914,0,0,1,.548.428,1.72,1.72,0,0,1-1.883,2.723,1.954,1.954,0,0,1-1.028-.97,1.725,1.725,0,0,1,.3-1.771A1.752,1.752,0,0,1,50.586,49.978Zm-.779,10.841c.817.009,1.47.535,1.322,1.339-.157.85-.383,2.045-.637,3.358-.37,1.918-.605,3.606-.7,4.311-.03.229.032.608-.2.562-.123-.025-.106-.27-.12-.395-.108-.942-.559-5.292-.8-7.632C48.591,61.449,48.889,60.809,49.807,60.819Zm-3.134,1.8a.9.9,0,0,1,.931,1.123l-.367,2.112-.022.125c-.333,1.908-.763,1.884-1.089-.025-.169-.987-.326-1.9-.424-2.467a.732.732,0,0,1,.691-.857Zm7.234.725c-.019.083-.125.947-.412,2.624-.333,1.951-.766,1.961-1.135.016-.145-.762-.285-1.533-.38-2.134a.956.956,0,0,1,1-1.231h.361A.586.586,0,0,1,53.907,63.339Z" transform="translate(0 0)" fill-rule="evenodd" fill="url(#linear-gradient)"/>
</svg>
